<svg width="80" height="15" viewBox="0 0 80 15" fill="none" xmlns="http://www.w3.org/2000/svg">
<path d="M4.67798 8.43636V11.9149C4.67798 12.448 4.73129 12.8411 4.83791 13.0943C4.95786 13.3342 5.15777 13.4942 5.43765 13.5741C5.73086 13.6541 6.19066 13.7008 6.81706 13.7141V14.1539C5.17777 14.1139 3.95829 14.0939 3.15864 14.0939C2.49226 14.0939 1.65262 14.1072 0.639724 14.1339L0 14.1539V13.7541C0.43981 13.7274 0.759672 13.6741 0.959586 13.5941C1.17283 13.5142 1.31277 13.3609 1.3794 13.1343C1.45937 12.9078 1.49935 12.5413 1.49935 12.0348V2.11908C1.49935 1.61264 1.45937 1.24613 1.3794 1.01956C1.31277 0.792991 1.17283 0.639724 0.959586 0.559758C0.759672 0.479792 0.43981 0.426482 0 0.399827V0C0.679707 0.0399822 1.6926 0.0599733 3.03869 0.0599733L5.25773 0.0399822C5.52428 0.0266548 5.83082 0.0199911 6.17733 0.0199911C7.97656 0.0199911 9.3493 0.379835 10.2956 1.09952C11.2418 1.80589 11.7149 2.75881 11.7149 3.95829C11.7149 4.69131 11.5284 5.39767 11.1552 6.07738C10.782 6.74376 10.149 7.30351 9.25601 7.75665C8.37639 8.20979 7.20356 8.43636 5.73752 8.43636H4.67798ZM5.91745 0.399827C5.5576 0.399827 5.29105 0.446473 5.11779 0.539766C4.95786 0.633059 4.84458 0.799654 4.77794 1.03955C4.7113 1.27945 4.67798 1.63929 4.67798 2.11908V8.03653H5.53761C6.61714 8.03653 7.36349 7.69001 7.77664 6.99698C8.1898 6.30395 8.39638 5.36435 8.39638 4.1782C8.39638 2.88542 8.20313 1.9325 7.81663 1.31943C7.44345 0.706361 6.81039 0.399827 5.91745 0.399827Z" fill="#1E1F23"/>
<path d="M19.0462 1.71926C20.3922 1.71926 21.5717 1.96582 22.5846 2.45894C23.5975 2.93873 24.3839 3.65176 24.9436 4.59802C25.5034 5.53095 25.7832 6.65046 25.7832 7.95657C25.7832 9.23601 25.4967 10.3689 24.9236 11.3551C24.3505 12.328 23.5509 13.0877 22.5247 13.6341C21.4984 14.1672 20.3323 14.4338 19.0262 14.4338C17.6801 14.4338 16.5006 14.1939 15.4877 13.7141C14.4748 13.221 13.6885 12.5079 13.1287 11.575C12.5689 10.6287 12.2891 9.50256 12.2891 8.19646C12.2891 6.91701 12.5756 5.79083 13.1487 4.81792C13.7218 3.83168 14.5214 3.07201 15.5477 2.5389C16.5739 1.99247 17.7401 1.71926 19.0462 1.71926ZM18.9662 2.0791C18.2732 2.0791 17.6601 2.33899 17.127 2.85877C16.6072 3.36521 16.2007 4.07824 15.9075 4.99784C15.6276 5.90412 15.4877 6.94367 15.4877 8.1165C15.4877 9.30265 15.6476 10.3489 15.9675 11.2551C16.2873 12.1614 16.7205 12.8611 17.2669 13.3542C17.8267 13.834 18.4397 14.0739 19.1061 14.0739C19.7992 14.0739 20.4056 13.8207 20.9253 13.3143C21.4584 12.7945 21.8649 12.0815 22.1448 11.1752C22.438 10.2556 22.5846 9.20936 22.5846 8.03653C22.5846 6.85038 22.4247 5.80416 22.1048 4.89789C21.785 3.99161 21.3452 3.29858 20.7854 2.81878C20.239 2.32566 19.6326 2.0791 18.9662 2.0791Z" fill="#1E1F23"/>
<path d="M36.9584 11.555C36.9584 12.3147 37.0051 13.181 37.0984 14.1539C36.2321 14.1139 34.7727 14.0939 32.7203 14.0939C29.9748 14.0939 27.909 14.1139 26.5229 14.1539V13.7541C26.9761 13.7274 27.3026 13.6741 27.5025 13.5941C27.7024 13.5142 27.8357 13.3609 27.9023 13.1343C27.9823 12.9078 28.0223 12.5413 28.0223 12.0348V4.11822C28.0223 3.61177 27.9823 3.24527 27.9023 3.0187C27.8357 2.79213 27.6958 2.63886 27.4825 2.55889C27.2826 2.47893 26.9627 2.42562 26.5229 2.39896V1.99914C27.909 2.03912 29.9748 2.05911 32.7203 2.05911C34.5861 2.05911 35.9122 2.03912 36.6985 1.99914C36.6052 2.89208 36.5586 3.69174 36.5586 4.3981C36.5586 4.91788 36.5786 5.33103 36.6186 5.63757H36.1588C35.9589 4.49139 35.6123 3.67841 35.1192 3.19862C34.6261 2.7055 33.9464 2.45894 33.0801 2.45894H32.3404C31.9939 2.45894 31.734 2.49226 31.5608 2.55889C31.3875 2.61221 31.2609 2.73215 31.1809 2.91874C31.1143 3.092 31.081 3.37188 31.081 3.75838V7.83662H32.0206C32.6336 7.83662 33.0934 7.62338 33.4 7.19689C33.7198 6.75708 33.9331 6.25063 34.0397 5.67755H34.4995C34.4595 6.13069 34.4395 6.65046 34.4395 7.23688V8.03653C34.4395 8.63627 34.4795 9.4226 34.5595 10.3955H34.0997C34.0064 9.76912 33.7931 9.256 33.4599 8.85618C33.1401 8.44302 32.6603 8.23644 32.0206 8.23644H31.081V12.3946C31.081 12.7811 31.1143 13.0677 31.1809 13.2543C31.2609 13.4275 31.3875 13.5475 31.5608 13.6141C31.734 13.6674 31.9939 13.6941 32.3404 13.6941H33.2C34.1463 13.6941 34.886 13.4209 35.4191 12.8744C35.9655 12.328 36.3454 11.4084 36.5586 10.1156H37.0184C36.9784 10.4888 36.9584 10.9686 36.9584 11.555Z" fill="#1E1F23"/>
<path d="M49.8404 1.99914C49.7471 3.01203 49.7004 3.91831 49.7004 4.71796C49.7004 5.46431 49.7204 6.05072 49.7604 6.4772H49.3006C49.114 5.46431 48.8874 4.67132 48.6209 4.09823C48.3677 3.52514 48.0345 3.11199 47.6213 2.85877C47.2215 2.59221 46.7017 2.45894 46.062 2.45894H45.4423V11.8349C45.4423 12.3946 45.4956 12.8011 45.6022 13.0544C45.7088 13.3076 45.8954 13.4808 46.162 13.5741C46.4285 13.6674 46.8617 13.7274 47.4614 13.7541V14.1539C46.7417 14.1139 45.5422 14.0939 43.8629 14.0939C42.1703 14.0939 41.0042 14.1139 40.3645 14.1539V13.7541C40.9642 13.7274 41.3973 13.6674 41.6639 13.5741C41.9304 13.4808 42.117 13.3076 42.2237 13.0544C42.3303 12.8011 42.3836 12.3946 42.3836 11.8349V2.45894H41.7639C41.1241 2.45894 40.5977 2.59221 40.1845 2.85877C39.7847 3.11199 39.4515 3.52514 39.185 4.09823C38.9317 4.67132 38.7118 5.46431 38.5252 6.4772H38.0654C38.1054 6.05072 38.1254 5.46431 38.1254 4.71796C38.1254 3.91831 38.0788 3.01203 37.9855 1.99914C39.145 2.03912 41.1041 2.05911 43.8629 2.05911C46.6751 2.05911 48.6675 2.03912 49.8404 1.99914Z" fill="#1E1F23"/>
<path d="M56.5458 2.39896C56.0926 2.42562 55.7661 2.47893 55.5662 2.55889C55.3663 2.63886 55.2263 2.79213 55.1464 3.0187C55.0797 3.24527 55.0464 3.61177 55.0464 4.11822V12.0348C55.0464 12.5413 55.0797 12.9078 55.1464 13.1343C55.2263 13.3609 55.3663 13.5142 55.5662 13.5941C55.7661 13.6741 56.0926 13.7274 56.5458 13.7541V14.1539C55.866 14.1139 54.8798 14.0939 53.587 14.0939C52.1876 14.0939 51.1547 14.1139 50.4884 14.1539V13.7541C50.9415 13.7274 51.268 13.6741 51.4679 13.5941C51.6679 13.5142 51.8011 13.3609 51.8678 13.1343C51.9477 12.9078 51.9877 12.5413 51.9877 12.0348V4.11822C51.9877 3.61177 51.9477 3.24527 51.8678 3.0187C51.8011 2.79213 51.6612 2.63886 51.4479 2.55889C51.248 2.47893 50.9282 2.42562 50.4884 2.39896V1.99914C51.1414 2.03912 52.1743 2.05911 53.587 2.05911C54.8798 2.05911 55.866 2.03912 56.5458 1.99914V2.39896Z" fill="#1E1F23"/>
<path d="M62.4051 1.71926C63.0182 1.71926 63.5379 1.7859 63.9644 1.91917C64.4042 2.05245 64.8174 2.23237 65.2039 2.45894C65.3505 2.5389 65.4771 2.60554 65.5837 2.65885C65.7037 2.71216 65.8036 2.73882 65.8836 2.73882C66.0035 2.73882 66.0968 2.67218 66.1635 2.5389C66.2301 2.3923 66.2834 2.16573 66.3234 1.8592H66.7832C66.7166 2.65885 66.6832 4.04492 66.6832 6.0174H66.2234C66.0768 4.81792 65.6903 3.87833 65.064 3.19862C64.4376 2.50558 63.6179 2.15907 62.605 2.15907C61.9386 2.15907 61.3989 2.30567 60.9857 2.59888C60.5859 2.89208 60.386 3.27192 60.386 3.73839C60.386 4.09823 60.4926 4.43142 60.7058 4.73795C60.9324 5.03116 61.2256 5.30438 61.5854 5.5576C61.9453 5.81082 62.4717 6.14401 63.1648 6.55717L63.6046 6.81706C64.4042 7.27019 65.0573 7.68335 65.5637 8.05652C66.0702 8.41637 66.49 8.84951 66.8232 9.35596C67.1564 9.84908 67.323 10.4088 67.323 11.0352C67.323 12.1281 66.8698 12.9677 65.9636 13.5541C65.0573 14.1406 63.8645 14.4338 62.3851 14.4338C61.7454 14.4338 61.1923 14.3605 60.7258 14.2139C60.2594 14.0806 59.7862 13.894 59.3064 13.6541C58.9732 13.4942 58.74 13.4142 58.6067 13.4142C58.4868 13.4142 58.3935 13.4875 58.3269 13.6341C58.2602 13.7674 58.2069 13.9873 58.1669 14.2938H57.7071C57.7604 13.5475 57.7871 11.9215 57.7871 9.41594H58.2469C58.3402 10.8287 58.72 11.9415 59.3864 12.7545C60.0661 13.5675 61.019 13.974 62.2452 13.974C62.8449 13.974 63.3647 13.8207 63.8045 13.5142C64.2443 13.2076 64.4642 12.7545 64.4642 12.1548C64.4642 11.6216 64.2576 11.1618 63.8445 10.7753C63.4313 10.3888 62.725 9.90239 61.7254 9.31598C60.4593 8.59629 59.4864 7.90992 58.8067 7.25687C58.1403 6.60382 57.8071 5.83748 57.8071 4.95786C57.8071 3.91831 58.2336 3.11865 59.0865 2.55889C59.9528 1.99914 61.059 1.71926 62.4051 1.71926Z" fill="#1E1F23"/>
<path d="M80 1.99914C79.9067 3.01203 79.8601 3.91831 79.8601 4.71796C79.8601 5.46431 79.8801 6.05072 79.92 6.4772H79.4602C79.2737 5.46431 79.0471 4.67132 78.7805 4.09823C78.5273 3.52514 78.1941 3.11199 77.781 2.85877C77.3811 2.59221 76.8614 2.45894 76.2216 2.45894H75.6019V11.8349C75.6019 12.3946 75.6552 12.8011 75.7618 13.0544C75.8685 13.3076 76.055 13.4808 76.3216 13.5741C76.5881 13.6674 77.0213 13.7274 77.621 13.7541V14.1539C76.9013 14.1139 75.7019 14.0939 74.0226 14.0939C72.33 14.0939 71.1638 14.1139 70.5241 14.1539V13.7541C71.1238 13.7274 71.557 13.6674 71.8235 13.5741C72.0901 13.4808 72.2767 13.3076 72.3833 13.0544C72.4899 12.8011 72.5432 12.3946 72.5432 11.8349V2.45894H71.9235C71.2838 2.45894 70.7573 2.59221 70.3442 2.85877C69.9443 3.11199 69.6112 3.52514 69.3446 4.09823C69.0914 4.67132 68.8715 5.46431 68.6849 6.4772H68.2251C68.2651 6.05072 68.2851 5.46431 68.2851 4.71796C68.2851 3.91831 68.2384 3.01203 68.1451 1.99914C69.3046 2.03912 71.2638 2.05911 74.0226 2.05911C76.8347 2.05911 78.8272 2.03912 80 1.99914Z" fill="#1E1F23"/>
</svg>
